<?xml version="1.0" standalone="no"?>
<!DOCTYPE svg PUBLIC "-//W3C//DTD SVG 20010904//EN"
 "http://www.w3.org/TR/2001/REC-SVG-20010904/DTD/svg10.dtd">
<svg version="1.0" xmlns="http://www.w3.org/2000/svg"
 width="992.000000pt" height="992.000000pt" viewBox="0 0 992.000000 992.000000"
 preserveAspectRatio="xMidYMid meet">
<metadata>
Created by potrace 1.11, written by Peter Selinger 2001-2013
</metadata>
<g transform="translate(0.000000,992.000000) scale(0.100000,-0.100000)"
fill="#000000" stroke="none">
<path d="M3664 7677 c-61 -95 -129 -192 -136 -195 -4 -2 -8 -8 -8 -13 0 -11
-42 -72 -52 -77 -5 -2 -8 -7 -8 -12 0 -4 -54 -87 -120 -184 -66 -97 -120 -181
-120 -186 0 -6 -3 -10 -7 -10 -5 0 -21 -21 -38 -48 -16 -26 -32 -49 -35 -52
-3 -3 -23 -32 -45 -65 -21 -33 -101 -151 -177 -263 -76 -112 -138 -207 -138
-212 0 -4 -4 -10 -8 -12 -10 -4 -52 -64 -52 -75 0 -6 4053 -9 4483 -4 l48 1
-55 81 c-31 44 -56 84 -56 89 0 5 -3 10 -7 12 -5 2 -21 23 -38 48 -16 25 -32
47 -35 50 -3 3 -30 43 -60 90 -29 47 -56 87 -59 90 -6 5 -50 70 -76 111 -30
49 -109 165 -115 169 -4 3 -9 10 -11 15 -5 13 -270 408 -278 415 -3 3 -12 17
-20 33 -8 15 -18 27 -23 27 -4 0 -8 4 -8 9 0 12 -61 105 -72 109 -4 2 -8 8 -8
14 0 5 -12 25 -26 44 l-26 34 -1297 0 -1296 -1 -21 -32z"/>
<path d="M2802 6007 c6 -12 57 -89 112 -170 56 -82 106 -156 111 -165 18 -31
190 -287 195 -292 3 -3 21 -30 40 -60 19 -30 37 -57 40 -60 3 -3 33 -45 66
-95 33 -49 130 -193 215 -318 85 -126 159 -236 164 -245 6 -10 24 -37 40 -61
17 -24 35 -51 40 -60 6 -8 27 -39 48 -68 20 -29 37 -55 37 -59 0 -4 7 -16 17
-26 9 -10 21 -27 27 -37 6 -10 97 -145 201 -300 105 -155 195 -289 200 -299 6
-9 12 -19 15 -22 6 -5 97 -139 115 -168 21 -34 50 -77 55 -82 3 -3 17 -23 30
-45 13 -22 27 -42 30 -45 3 -3 20 -27 38 -55 17 -27 35 -54 39 -60 5 -5 74
-108 153 -227 80 -120 148 -216 152 -215 4 1 40 49 79 107 93 136 489 724 509
755 54 85 256 381 262 383 5 2 8 10 8 18 0 8 3 14 8 14 4 0 12 9 17 20 6 11
55 86 110 167 55 82 170 252 255 378 85 127 157 232 160 235 5 5 96 141 115
172 32 53 171 254 177 256 5 2 8 8 8 13 0 9 38 68 51 79 3 3 14 20 24 38 11
17 23 32 28 32 4 0 6 4 3 8 -3 5 2 18 12 28 10 10 62 86 117 169 55 82 104
154 108 160 38 48 144 216 139 219 -4 2 -991 4 -2194 4 l-2188 0 12 -21z"/>
<path d="M2474 5908 c-27 -40 -51 -75 -54 -78 -3 -3 -30 -43 -60 -90 -30 -47
-57 -87 -60 -90 -10 -9 -245 -359 -255 -380 -5 -11 -13 -20 -17 -20 -5 0 -8
-6 -8 -14 0 -8 -3 -16 -7 -18 -5 -1 -39 -50 -78 -108 -38 -58 -74 -108 -80
-112 -7 -5 -7 -8 0 -8 6 0 6 -3 0 -8 -11 -7 -52 -63 -70 -94 -12 -22 -208
-311 -215 -318 -8 -8 -145 -214 -149 -225 -2 -5 -7 -12 -10 -15 -6 -5 -116
-166 -211 -310 -25 -37 -53 -78 -62 -91 -10 -13 -41 -60 -70 -104 -29 -44 -55
-82 -58 -85 -3 -3 -34 -50 -70 -105 -36 -55 -67 -102 -70 -105 -4 -3 -57 -81
-120 -175 -62 -93 -117 -171 -121 -173 -5 -2 -9 -9 -9 -16 0 -7 -8 -21 -18
-32 -9 -10 -23 -31 -31 -46 -8 -15 -21 -36 -30 -45 -9 -10 -22 -30 -30 -45 -8
-16 -18 -28 -23 -28 -4 0 -8 -4 -8 -9 0 -5 -29 -51 -64 -103 l-64 -94 2169 0
c1193 0 2169 2 2169 3 0 4 -323 486 -330 493 -3 3 -21 30 -40 60 -19 30 -37
57 -40 60 -3 3 -50 73 -105 155 -55 83 -102 152 -105 155 -3 3 -9 13 -15 22
-11 18 -188 281 -404 601 -78 114 -141 212 -141 217 0 6 -5 10 -10 10 -6 0
-16 12 -23 28 -6 15 -14 29 -18 32 -8 6 -193 282 -198 295 -2 6 -7 12 -10 15
-4 3 -29 39 -56 80 -27 41 -55 81 -62 88 -7 7 -13 17 -13 22 0 5 -6 15 -13 22
-11 11 -52 72 -82 119 -24 38 -95 145 -103 154 -5 6 -17 24 -28 40 -10 17 -21
32 -24 35 -3 3 -9 13 -15 22 -28 48 -270 403 -277 406 -4 2 -8 9 -8 15 -1 7
-11 25 -24 40 l-23 28 -49 -73z"/>
<path d="M7427 5962 c-10 -10 -17 -23 -17 -29 0 -6 -3 -13 -7 -15 -5 -1 -57
-77 -118 -168 -60 -91 -113 -169 -117 -175 -5 -5 -23 -32 -41 -60 -18 -27
-105 -156 -192 -285 -88 -129 -181 -269 -209 -310 -27 -41 -53 -76 -58 -78 -4
-2 -8 -8 -8 -14 0 -11 -101 -161 -112 -166 -5 -2 -8 -10 -8 -18 0 -8 -4 -14
-10 -14 -5 0 -10 -7 -10 -15 0 -8 -4 -15 -10 -15 -5 0 -10 -4 -10 -10 0 -8
-56 -96 -70 -110 -3 -3 -59 -86 -125 -185 -66 -99 -122 -182 -125 -185 -3 -3
-72 -106 -155 -230 -82 -124 -154 -230 -160 -236 -5 -6 -19 -27 -30 -47 -11
-20 -23 -37 -27 -37 -5 0 -8 -6 -8 -14 0 -8 -3 -16 -7 -18 -11 -5 -53 -66 -53
-77 0 -5 -3 -11 -7 -13 -7 -3 -232 -331 -258 -376 -27 -46 -139 -207 -147
-210 -4 -2 -8 -9 -8 -15 0 -7 -9 -23 -20 -37 -11 -14 -20 -27 -20 -30 0 -3
974 -6 2165 -6 1191 0 2165 3 2165 7 0 3 -13 24 -28 45 -16 21 -108 158 -206
304 -98 146 -184 274 -192 285 -61 87 -114 168 -114 175 0 5 -4 10 -8 12 -4 2
-72 100 -151 218 -80 118 -151 225 -160 236 -9 12 -22 30 -28 40 -7 11 -51 75
-98 144 -47 69 -88 132 -92 140 -4 8 -10 17 -13 20 -4 3 -80 115 -170 250 -90
135 -167 247 -172 248 -4 2 -8 8 -8 13 0 9 -77 125 -97 147 -7 7 -13 17 -13
22 0 5 -6 15 -13 22 -7 7 -95 137 -196 288 -102 151 -188 277 -193 278 -4 2
-8 8 -8 12 0 8 -123 195 -147 225 -5 6 -19 27 -32 48 -12 20 -24 37 -25 37 -2
0 -10 -8 -19 -18z"/>
</g>
</svg>
