<?xml version="1.0" encoding="utf-8"?>
<svg version="1.1" xmlns="http://www.w3.org/2000/svg" xmlns:xlink="http://www.w3.org/1999/xlink" x="0px" y="0px"
	 viewBox="0 0 164.4 527.3" style="enable-background:new 0 0 164.4 527.3;" xml:space="preserve">
<g id="Layer_11">
	<g>
		<path d="M67.9,46.9c0.1,0,0.1,0,0.2,0c0.6-0.1,1-0.8,1.1-1.4c0.2-1.2,0.2-2.4,0.2-3.6c0-1.3,0-2.7,0.3-4c0.4-1.5,1.1-2.9,1.7-4.2
			c0.5-1,1-2,1.4-3c0.1-0.3,0.1-0.9-0.2-1.2c-0.2-0.2-0.4-0.3-0.7-0.2c-1,0.3-1.9,1-2.6,1.8l0-0.1c1.7-4.3,3.1-8,6.6-11.2
			c0.2-0.2,0.2-0.4,0-0.6l-0.3-0.2l-0.2,0.2c-4.6,3.3-7.3,7.6-7.6,12c0,0.4,0.2,0.7,0.5,0.8c0,0,0.1,0,0.1,0c0,0,0.1,0,0.1,0
			c-1.2,1.8-1.9,4-2.2,5c-0.8,2.9-1.4,6.8,0.5,9.5C67.3,46.8,67.6,46.9,67.9,46.9z"/>
		<path d="M82.5,10c0.2,0.1,0.3,0.2,0.5,0.2c0.2,0,0.4-0.2,0.5-0.4C84.3,9.4,85,9,85.6,8.6l0.3-0.2c0.1,0.4,0.3,0.9,0.6,1.2
			c0.2,0.1,0.5,0.2,0.8,0.1c1.2-0.4,2.3-1,3.6-1.9C91,8,91.1,8.2,91.3,8.4c0.2,0.2,0.4,0.3,0.7,0.2c1.1-0.1,2.2-0.5,3.2-1.2
			c1.4-0.1,2.8,0,4,0.4c0.3,0.4,0.6,0.7,1,1c0.6,0.6,1.4,1,2,1.4c0.4,0.3,0.9,0.5,1.3,0.8l0.2,0.1l0.1,0.1c0.2,0.2,0.4,0.4,0.6,0.4
			c0.6,0.5,0.9,1,0.7,1.6c-0.1,0.3-0.6,0.7-0.9,1c-0.1,0.1-0.3,0.2-0.4,0.3c-0.3,0.3-0.5,0.9-0.4,1.4c0,0.4,0.2,0.7,0.5,0.9
			c0.5,0.3,0.9,0.4,1.3,0.4c0.4,0,0.8-0.2,1-0.3c1.4-0.9,1.8-3.6,1.6-5.1c-0.3-1.4-1.1-2.7-2.4-3.8c-0.2-0.1-0.4-0.3-0.7-0.5
			c-0.6-0.7-1.2-1.5-1.8-2.2c0.1,0,0.2,0,0.3,0c0.2,0.3,0.5,0.5,0.7,0.7c0.2,0.1,0.4,0.1,0.5,0c0.2-0.2,0.2-0.5,0-0.7
			c-0.2-0.2-0.3-0.5-0.5-0.7c0.5,0.2,1,0.4,1.5,0.6c2.1,0.9,4.1,1.7,4.3,3.9c0,0.4,0.3,0.7,0.6,0.8c0.2,0,0.5-0.1,0.6-0.6
			c0.7-3.4-2.6-5-5.3-6.2c-0.9-0.4-1.8-0.8-2.4-1.3c-0.3-0.2-0.6-0.1-0.7-0.1c-0.4,0.2-0.5,0.9-0.4,1.2c0,0.2,0.1,0.4,0.1,0.5
			c-0.1-0.1-0.2-0.1-0.3-0.2c0.1-0.4,0.1-0.8,0.1-1.1c0-0.4-0.2-1.7-1.1-2.2c-1-0.5-1.9,0.4-2.3,0.8c-0.2,0.2-0.4,0.5-0.6,0.8
			C98,1.6,98,1.6,97.9,1.5c-0.1-0.1-0.4-0.1-0.6,0.1c-1.1,0.7-2.1,1.4-3.1,2.1c0,0-0.1,0-0.1,0c0,0-0.1,0-0.2,0
			c0-0.3-0.1-0.6-0.3-0.9c-0.2-0.2-0.4-0.3-0.7-0.3C89.1,2.7,83.1,4.7,82,8.4c-0.1,0.4-0.1,1.1,0.3,1.5L82.5,10z"/>
		<path d="M71.6,66.4c-0.3,0.5-0.4,1.9-0.1,2.4c3.1,4.7,5.9,7.7,8.8,9.6c0.1,0.1,0.2,0.1,0.3,0.1c0.2,0,0.4-0.1,0.5-0.3
			c0.4-0.6,0.5-2.2-0.2-2.7c-3.6-2.3-6.5-6.4-8.4-9.2C72.4,66,72.2,66,72.1,66C71.9,66,71.7,66.1,71.6,66.4z"/>
		<path d="M135.9,149.2c-0.2,0-0.4,0.2-0.4,0.5c0.2,10.1,1.3,20.1,3.2,30.5c0.3,1.6,0.6,3.3,0.9,5.1c1.7,9.8,3.8,22,7,29.7
			c0.1,0.3,0.4,0.4,0.6,0.4c0,0,0.1,0,0.1,0c0.3-0.1,0.6-0.5,0.6-0.9c-0.5-6.2-2.5-14.6-4.3-22c-1-4.1-1.9-8-2.5-11.2
			c-2.4-12.5-3.9-22.6-4.5-31.7C136.3,149.4,136.1,149.2,135.9,149.2z"/>
		<path d="M77.7,30.2c0.4,0,0.8-0.3,0.9-1c0.2-1.7,0.9-3.4,1.9-4.8c0.3-0.4,2.8-2.9,3.9-3.2l0.4,0c0,0,0.1,0.1,0.1,0.1
			c0.1,0.2,0.2,0.3,0.4,0.3c0.2,0,0.4-0.2,0.5-0.4c0,0,0,0,0,0c3.3,0,6.3,0.6,9.4,1.8c0.1,0.2,0.1,0.4,0.2,0.5
			c0.4,0.7,0.8,1.2,1.2,1.6c-0.1,0.1-0.3,0.3-0.4,0.4c-0.1,0.1-0.3,0.3-0.4,0.4c-0.1,0.1-0.2,0.1-0.3,0.3c-0.5,0.4-1,0.9-1.4,1.6
			c-0.4,0.9-0.2,2,0.5,2.6c0.6,0.5,1.3,0.4,2,0c0,0,0,0,0.1,0c-0.3,0.7-0.6,1.4-1,2c-0.1,0-0.2,0-0.3,0c-0.2,0-0.4,0.3-0.5,0.6
			c-0.1,0.4-0.2,0.9-0.3,1.4c-0.1,0.5,0.2,1.4,0.7,1.6c0.2,0.1,0.6,0.1,0.9-0.4c1.3-1.9,2.1-3.7,2.4-5.3c0.2,0.2,0.5,0.5,0.7,0.8
			c-0.2,0.4-0.4,0.8-0.7,1.1l-0.3,0.5h0.1c-0.1,0.4,0,0.9,0.2,1.2c0.2,0.4,0.5,0.6,0.8,0.6c0,0,0,0,0,0c0.2,0,0.5-0.1,0.7-0.5
			c0.2-0.3,0.3-0.6,0.5-0.9c1.3,2.3,2,5,2.6,7.4l0,0c0,0.1-0.1,0.1-0.1,0.2c-0.1,0.3-0.1,0.8,0.1,1.1c0.1,0.1,0.1,0.2,0.2,0.3
			c-0.3,2.8-0.5,5.4-0.7,7.8c-0.1,0.7,0.5,1.8,1.1,2c0,0,0.1,0,0.2,0c0.3,0,0.6-0.2,0.9-0.9c0.2-0.5,0.5-1.3,1-2.4
			c0.5-1.2,1.1-2.6,1.8-4.2c0.2,0.1,0.4,0.1,0.6,0.1c0.2,0,0.4-0.2,0.6-0.5c0.1,0,0.3-0.1,0.4-0.3c4.3-4.9,3.2-12.8,0.3-18.1
			c-0.3-0.6-1.4-2.1-2.5-2.8c0.3-0.4,0.6-0.8,0.8-1.1c0.5-0.9,1.6-3.2,0.8-5.2c-0.1-0.3-0.4-0.6-0.7-0.6c-0.3,0-0.5,0.1-0.7,0.4
			c-0.2,0.4-0.4,0.7-0.5,1.1c-0.3,0.6-0.5,1.2-1,1.7c-0.3,0.3-0.6,0.6-0.9,0.9c-0.6,0.5-1.2,1-1.6,1.7c0-0.3-0.1-0.6-0.3-0.7
			c-0.3-0.2-0.7-0.5-1.1-0.7c0.1-0.2,0.2-0.4,0.2-0.6c0-0.5-0.2-1-0.6-1.1c-2.3-0.6-4.6-1-6.9-1.1l-0.3-0.1c-0.1,0-0.3,0-0.4,0.1
			c-0.3,0-0.6,0-0.9,0c-1-0.2-2.1-0.3-3.3-0.3c0-0.1,0-0.1,0-0.2l-0.2-0.3l-0.3,0.1c-0.6,0.2-1.2,0.3-1.8,0.4
			c-1.9,0.1-3.7,0.3-5.3,0.5c-0.7,0.1-1.2,0.7-1.3,1.6c-0.6,0.3-1.1,0.6-1.5,0.9c-0.5,0.2-0.6,1-0.4,1.5c0,0,0,0.1,0.1,0.1
			c-0.1,0-0.3,0.1-0.5,0.2c-2.2,1.6-2.3,5.4-1.9,7.5C76.8,29.9,77.3,30.2,77.7,30.2z M79.9,21.8C79.9,21.8,79.9,21.8,79.9,21.8
			c0,0,0,0.1-0.1,0.2c0,0-0.1-0.1-0.1-0.1C79.8,21.8,79.8,21.8,79.9,21.8z M104.3,27c0.2,0.1,0.4,0.1,0.5,0c0,0,0.1-0.1,0.1-0.1
			c0,0,0,0,0,0c0.6,1.8,1.2,3.8,1.3,5.8c-0.2-0.1-0.4-0.1-0.6,0c-0.5,0.2-0.8,0.7-0.9,1.3c0,0.1,0,0.2,0,0.3
			c-0.6-1.8-1.4-3.4-2.3-4.6c0.3-1,0.6-1.9,0.8-2.8c0.3,0,0.5-0.2,0.8-0.4C103.9,26.6,104.1,26.8,104.3,27z M99,26.7
			C99,26.7,99,26.6,99,26.7c0.3-0.1,0.5-0.1,0.7-0.2c0.3-0.2,0.5-0.5,0.6-1c0.4,0.3,0.7,0.6,1.1,0.8c-0.2,0.6-0.3,1.2-0.5,1.7
			C100.3,27.5,99.7,27,99,26.7z M108.6,26.5c-0.1,0-0.2-0.1-0.3-0.1c-0.3-0.6-0.6-1.3-0.9-1.9c0.2,0.2,0.4,0.6,0.8,1.2l0.1,0.2v0
			C108.4,26.1,108.5,26.3,108.6,26.5z"/>
		<path d="M56.7,164.5c-0.2-0.9-0.5-2.4-0.9-4.1c-0.7-3.3-1.6-7.4-2-9.2c-0.3-1.1-0.5-2.2-0.8-3.3c-0.4-1.6-0.8-3.3-1.2-5
			c0-0.1-0.2-0.3-0.3-0.2c-0.1,0-0.3,0.1-0.3,0.3c-0.2,3,0.1,5.9,0.5,8.7c0.4,2.9,1.9,10.7,2.5,13.5c0.7,2.9,1.7,6.7,2.4,9.2
			c0.8,2.7,2.5,8.2,2.5,8.3c0,0.1,0.2,0.2,0.3,0.2c0,0,0,0,0.1,0c0.2,0,0.3-0.2,0.2-0.3l-1.5-8.5C58.3,173.8,57.3,167.3,56.7,164.5
			C56.7,164.5,56.7,164.5,56.7,164.5z"/>
		<path d="M83.6,133c-0.6,0.7-1.3,1.4-1.9,2.1c-0.8-1.7-1.8-3.2-2.8-4.7c-0.9-1.4-1.9-2.9-2.7-4.4c-0.9-1.7-1.4-3.6-1.8-5.4
			c-0.4-1.5-0.8-3.1-1.4-4.6c-0.1-0.2-0.3-0.3-0.4-0.3c-0.2,0-0.4,0.1-0.4,0.3c-2.5,6.4,3.6,16.7,7.9,20.9l-1.6,1.7
			c-4.2,4.4-8.5,9-12.1,13.9c-0.5,0.7-0.3,2.2,0.3,2.8c0.2,0.2,0.4,0.3,0.7,0.3s0.5-0.1,0.7-0.3c6.1-4.6,11.2-10.9,16.1-17
			c1-1.3,2.1-2.6,3.1-3.8c1.1-1.3,2.2-2.6,3.4-4c4.5-5.2,9.1-10.6,11.8-16.5c0.1-0.2,0-0.6-0.2-0.7c-0.2-0.1-0.4-0.1-0.5,0
			c-2.6,1.8-4.8,4.4-6.8,6.9c-0.7,0.8-1.3,1.6-2,2.4c-1,1.2-2.1,2.4-3.1,3.6C87.8,128.3,85.7,130.7,83.6,133z"/>
		<path d="M106.7,94.2c-5.1-2.1-7-5.4-8.5-10.2c-0.1-0.4-0.4-0.7-0.8-0.6c-0.3,0-0.5,0.2-0.6,0.7c-0.6,6.9,2.7,11.8,10.2,15.3
			l1.5,0.7c4.2,2,8.5,4,12.9,5.8c2.3,1,5,2.1,7.6,3.5c0.8,0.4,1.4,0.9,1.9,1.4c-1.4,2.4-2.2,4.5-2.6,6.8c-0.1,0.6,0.3,2.1,1.1,2.5
			c0.2,0.1,0.7,0.2,1.1-0.3c0.6-0.6,1.1-1.4,1.7-2.2c0,0.2,0.1,0.3,0.1,0.5c0,0.6,0,1.2,0,1.9c0,1,0.3,1.9,0.9,2.3
			c0.3,0.3,0.7,0.4,1.1,0.4c0,0.1,0,0.2,0,0.3c0,0.2,0.2,0.4,0.4,0.4c0.1,0,0.1,0,0.2,0c0,0.2,0,0.5-0.1,0.7c0,0.1,0,0.2,0,0.3
			c-0.1,1.3-0.1,2.6-0.2,3.8l0,0.2c0,0.4,0,0.9-0.1,1.3c-0.1,1.8-0.2,3.7,0.6,5.4c0.2,0.4,0.7,0.9,1.2,0.9
			c-6.5,1.1-12.5,3.8-18.1,6.6c-0.2-0.6-0.5-1.2-1-1.5c-0.3-0.1-0.7-0.1-1.2,0.3c-1.3,1.1-2,2.6-2.1,4.6c-0.4,0.4-0.6,0.8-0.7,1.3
			c-0.3,0.3-0.7,0.9-1.2,1.5c-0.4,0.5-0.8,1-1,1.3l-0.1,0.2l0.1,0.2c0.1,0.2,0.2,0.4,0.2,0.6l0.2,0.6l0.4-0.5
			c0.2-0.3,0.5-0.8,0.9-1.3c0.2-0.3,0.5-0.7,0.7-1c0.1,0.1,0.2,0.3,0.2,0.4l0,0.1c-0.2,0.6-0.4,1.3-0.6,1.9c-0.7,2.1-7,30.2-7.7,35
			l0,0.1c0,0.2,0,0.3,0,0.4l0.1,0.3l0.3,0c0.1,0,0.4,0,0.5-0.6c1.4-5.6,9.3-32.1,10.1-34.5l0.1-0.2c0.5-1.5,1-3,1.4-4.6l0.2-0.1
			c0.5-0.1,0.9-0.2,1.3-0.3c0.2,0,0.4-0.1,0.5-0.1c2.1-0.5,4.2-1.2,6.6-2c4-1.4,8.1-3.2,12.2-5.3c0.8-0.4,1.1-1.9,0.8-2.9
			c-0.2-0.7-0.7-1-1.3-1c-0.3,0-0.5,0.1-0.8,0.1c0.2-0.1,0.3-0.3,0.5-0.5c0.9-1.9,0.8-4,0.7-6.1c0-0.5-0.1-0.9-0.1-1.4
			c0-0.4,0-0.8,0-1.3c0-1.8,0.1-4-0.9-5.4c-0.3-0.4-0.6-0.5-0.9-0.5c0,0-0.1,0-0.1,0c0.1-0.2,0.1-0.5,0.1-0.8c0-0.4,0-0.8,0-1.1
			c0-0.5,0-1.1,0.1-1.6c0.2-4.5,0.4-9.2-3.9-11.9c-3.4-2.2-7.3-3.6-11.1-4.9c-1.3-0.5-2.7-1-4.1-1.5c-2.1-0.8-4.3-1.8-6.4-2.7
			C109.5,95.4,108.1,94.8,106.7,94.2z"/>
		<path d="M41.5,107c0.1,0,0.1,0,0.2,0c8.9-1.6,19-6,25.8-11.3c0.3-0.2,0.3-0.9,0.2-1.2c-0.1-0.3-0.4-0.4-0.6-0.3
			c-3.1,0.7-6.1,1.9-8.9,3c-1,0.4-2.1,0.8-3.1,1.2c-1.2,0.4-2.4,0.9-3.6,1.3c-3.4,1.2-6.9,2.5-10.2,4.1c-0.7,0.4-0.9,1.6-0.7,2.5
			C40.7,106.7,41,107,41.5,107z"/>
		<path d="M108.3,105.9l0.2-0.1c0.1,0,0.1,0,0.1,0l0,0l-0.2-0.6c-0.1,0-0.1,0-0.2,0l-0.2,0c-0.1,0-0.2,0-0.3,0.1l-0.9,0.2
			c-0.1,0-0.2,0.1-0.2,0.2l0,0.2l0.3,0.3l1.1-0.3C108.1,106,108.2,105.9,108.3,105.9z"/>
		<path d="M100.3,120.3c-0.2,0.3-0.2,1,0.2,1.3c0.1,0.1,0.2,0.1,0.4,0.1c0.1,0,0.3,0,0.4-0.1c0.9-0.7,1.7-1.5,2.4-2.3
			c0.5-0.5,0.9-1,1.4-1.4c1.3-1.2,2.7-2.4,4.1-3.4c3-2.2,6.2-4.1,9.9-5.7c0.4-0.2,0.5-0.7,0.5-1.1c0-0.4-0.3-0.7-0.6-0.8l-1.7-0.4
			c-1.2-0.3-2.4-0.6-3.6-0.9c-0.3-0.1-0.6-0.2-0.9-0.2c-1.2-0.3-2.5-0.7-3.8-0.4c-0.1,0-0.3,0.1-0.3,0.3c0,0.1,0,0.1-0.1,0.2
			c0,0,0,0-0.1,0l0.1,0.6c0.1,0,0.2,0,0.3,0c1.8,1.3,4.4,1.8,6.8,2.3c-2.5,1.3-4.9,2.7-7.1,4.3C105.4,114.7,102.1,117.2,100.3,120.3
			z"/>
		<path d="M53.8,107.7L53.8,107.7c1.3-0.3,2.5-0.6,3.8-0.9c1-0.2,1.9-0.5,2.9-0.7c0.4-0.1,0.5-0.5,0.5-0.8c0-0.4-0.3-0.6-0.6-0.6
			c-1.6-0.1-3,0.2-4.5,0.7l0,0c-1.5,0.3-2.9,0.7-4.4,1.3l-0.3,0.1c-0.1,0-0.3,0.1-0.4,0.1c-0.1,0-0.2,0.1-0.2,0.2
			c-0.8,0.3-1.7,0.7-2.5,1.1c-1.3,0.2-2.6,0.5-3.7,0.9c-0.2,0.1-0.4,0.3-0.3,0.6c0,0.3,0.2,0.5,0.5,0.5c0.4,0,0.8,0.1,1.2,0.1
			c0.4,0.1,0.8,0.1,1.2,0.1l0.2,0l0.1-0.1c0,0,0,0,0.1-0.1c0.5,0,0.9,0,1.4,0c2.1,0,4.3,0,6.4,0.4c1.9,0.3,3.9,0.8,5.8,1.5
			c0.7,0.2,1.3,0.5,2,0.8c0.4,0.2,0.8,0.4,1.2,0.6c0.6,0.1,0.9,0.4,1,0.7c0.2,0.4,0,0.9-0.4,1.6c-0.1,0.1-0.2,0.3-0.2,0.5
			c0,0.3,0.2,0.5,0.4,0.5c0.1,0,0.1,0,0.2,0c0.5,0,1-0.2,1.3-0.5c0.4-0.5,0.6-1.2,0.5-2c-0.3-1.9-2.5-2.8-4-3.5l-0.4-0.2
			c-3.4-1.5-7-2.4-10.2-2.6c0.4-0.1,0.8-0.3,1.2-0.4L53.8,107.7z"/>
		<path d="M63.8,101.7c-0.2,0.2-0.3,0.6-0.2,0.7l0.4,1.2c0.1,0.2,0.2,0.3,0.4,0.3c0,0,0.1,0,0.1,0c0.3,0.4,0.7,1,0.9,1.3
			c0.1,0.1,0.2,0.2,0.2,0.3c0.6,0.9,1.3,1.9,1.9,2.8c0.3,0.5,0.7,1,1,1.5c0.9,1.4,1.8,2.8,2.7,4.1c0.1,0.2,0.2,0.2,0.4,0.2
			c0.1,0,0.2,0,0.2-0.1c0.3-0.2,0.4-0.6,0.2-0.9c-2.2-4.3-4.8-8.2-7.7-11.4C64.2,101.6,64,101.6,63.8,101.7z"/>
		<path d="M124.1,179.7c0.4,1.8,0.9,3.7,1.4,5.5c0.7,2.8,1.4,5.8,2.4,8.5c0.2,0.5,0.6,0,0.5-0.4c-0.8-4.2-1.9-8.5-2.9-12.7
			c-0.4-1.7-0.6-6.1-2.9-6.4c-0.1,0-0.1,0.1-0.2,0.1c-0.1,0.1-0.1,0.2-0.2,0.4c0,0.1,0.1,0.4,0.2,0.3
			C122.7,174.8,124,179.3,124.1,179.7z"/>
		<path d="M89.9,80.2c0,0.4,0.2,0.7,0.3,0.8c0,0,0,0,0.1,0c4.3-2.4,7.3-7.1,9.9-11.2l0.1-0.2c2.4-3.7,4.4-7.3,3.9-11.7l0-0.1
			l-0.1,1.6l-0.1-0.1c-1.2,7.7-8.1,15-13.9,20C90,79.3,89.9,79.7,89.9,80.2z"/>
		<path d="M6,212.6c7.7-11.9,14.1-24.9,21-37.3c2.6-4.7,5.3-9,6.2-14.4c0.7-4.4,1.3-9,1.7-13.6c2.6,0.3,5,0.9,7.4,1.6
			c0.1,0,0.2,0,0.2,0c0.3,0,0.6-0.2,0.7-0.6c0.2-0.6,0-1.3-0.5-1.5h0c-1.2-0.5-2.5-1-3.8-1.5c-1.3-0.5-2.5-1-3.8-1.5
			c0-0.9,0.1-1.7,0.1-2.6c0,0,0-0.1-0.1,0c-0.2,0.8-0.4,1.6-0.5,2.4c-1.6-0.6-3.2-1.1-4.8-1.4c-0.4-0.1-0.7,0.1-0.8,0.5
			c-0.2,0.5,0,1.2,0.4,1.4c0.5,0.2,0.9,0.5,1.5,0.7c-1.4,0-2.7,0-3.9,0.2c-0.5,0.1-0.7,0.6-0.7,1c0,0.5,0.3,0.8,0.7,0.8
			c2.5-0.1,4.9,0,7.1,0.3c-0.6,4.4-1,8.9-1.7,13.3c-1.2,6.9-5.5,13-8.9,19c-6,10.8-12.6,21.4-17.8,32.5C5.4,212.4,5.7,213,6,212.6z"
			/>
		<path d="M70.7,93.3c3.1-2.7,6-7.9,3.9-12c-0.1-0.2-0.3-0.2-0.3,0c0,0.2-0.1,0.3-0.1,0.5c0,0.1,0,0.3,0.1,0.2
			c-0.1,0.1,0.2,3,0.1,3.3c-0.2,1.2-0.6,2.3-1.1,3.3c-0.8,1.5-1.8,2.8-2.8,4.1C70.2,92.9,70.4,93.6,70.7,93.3z"/>
		<path d="M101.1,51.7c-2.6,0.1-5.8,1.4-7.8,3.1c-0.2,0.2-0.2,1,0.3,0.8c1.3-0.4,2.5-1.1,3.7-1.5c0.1,0,0.1,0,0.2-0.1
			c0.5-0.1,0.9-0.1,1.4-0.2c1.2-0.1,2.5-0.2,3.7-0.5c0.2,0,0.2-0.4,0-0.4c-0.8,0-1.6,0.1-2.3,0.2c0.3-0.1,0.7-0.2,1-0.4
			C101.6,52.7,101.5,51.7,101.1,51.7z"/>
		<path d="M72,49.7c0.8,0.6,1.7,1.1,2.6,1.6c-0.6,0-1.3,0-1.8,0.1c-0.4,0.1-0.4,0.8,0,0.9c1.6,0.2,3.1,0.6,4.7,1.2
			c1.4,0.5,2.5,1.3,3.7,1.9c0.5,0.2,0.5-0.7,0.3-0.9c-0.7-1-1.7-1.7-2.9-2.2c-0.3-0.1-0.6-0.2-0.8-0.3c-1.2-0.4-2.1-0.9-3.2-1.6
			c-0.1-0.1-0.1,0.1-0.1,0.1c0,0.1,0.1,0.2,0.2,0.3c-0.9-0.5-1.7-0.9-2.6-1.4C71.9,49.1,71.9,49.6,72,49.7z"/>
		<path d="M116.3,289C116.3,289,116.3,289,116.3,289c-0.5,0-0.9,0.6-1.1,1.1c0,0.1-0.1,0.1-0.1,0.2c-2.8,4.3-4.2,9.4-5.6,14.3
			c-0.4,1.4-0.8,2.9-1.3,4.4l-0.7,2.3c-2.2,6.9-4.4,13.9-5.2,21.1c-0.7,6.2-0.1,12.4,0.5,18.5c0.1,1.4,0.3,2.9,0.4,4.3
			c0.3,3.1,0.5,7.1,0.3,11.2c-0.2,4.1-1,8.1-1.8,11.6c-1.8,8.3-4.3,16.3-6.5,23c-0.9,2.9-1.9,5.7-2.8,8.6c-1.5,4.6-3.1,9.3-4.5,14
			c-1.9,6.3-4.3,14.7-5,23.2c-0.2,2-0.3,3.9-0.3,5.8c0,0.3,0,0.7,0,1c0,0.6,0,1.1,0,1.7c-0.1,1-0.1,2-0.2,3.1l0,0.6
			c0,0.8-0.1,1.6-0.1,2.4c0,0.1,0,0.3-0.1,0.5c-0.1,1-0.2,1.9,0.1,2.3c0.2,0.2,0.3,0.3,0.5,0.3c0,0,0.1,0,0.1,0
			c0.4-0.1,0.5-0.6,0.5-1.2c0-0.1,0-0.1,0-0.2c0.2-1,0.3-1.9,0.4-2.8c0.1-1,0.2-2,0.3-2.9c0-0.4,0-0.8,0-1.1c0-0.6,0-1.3,0.1-1.8
			c0.1-0.3,0.1-0.6,0.2-0.9c0.1-0.5,0.3-1,0.4-1.6c0.2-1,0.4-2,0.6-3c0.8-4,1.7-8,2.6-11.9c0.4-1.8,0.9-3.6,1.3-5.3
			c0-0.2,0.7-2.8,0.8-3c2.1-7.8,4.7-15.5,7.2-23c2.4-7.3,5-14.9,7-22.5c2-7.5,3.9-15.5,3.7-23.8c-0.1-3.4-0.5-6.8-0.9-10.1
			c-0.5-4.4-1.1-9-0.8-13.5c0.3-4.4,1.3-8.7,2.6-13.4c0.7-2.6,1.4-5.1,2.2-7.6c0.5-1.8,1.1-3.7,1.6-5.5c0.3-1.2,0.7-2.3,1-3.5
			c0.7-2.6,1.5-5.2,2.1-7.9c0.5-2.1,0.8-4.1,1-5.8c0-0.1,0-0.3,0.1-0.5c0.1-0.7,0.2-1.6,0-2.2C116.7,289.1,116.5,289,116.3,289z"/>
		<path d="M90.2,432.8c-0.1-0.3-0.1-0.4-0.2-0.3c-0.2,0-0.4,0.4-0.4,0.7c0,0.6,0.1,1.7,0.5,2.1c0.1,0.1,0.2,0,0.2-0.1
			c0.1,0.8,0.3,1.7,0.3,1.9c0.4,1.4,0.9,2.8,1.4,4.2c1.2,3.3,2.7,6.6,4.3,9.7c0.4,0.7,0.7-0.7,0.5-1.1
			C94,444.5,91.9,438.8,90.2,432.8z"/>
		<path d="M95.1,451.1c0-0.1-0.2-0.2-0.2-0.1c-1,2.1-0.9,4.5-1,6.8c-0.2,3.5-0.2,7.1,0,10.6c0.1,1.4,1.5,1.1,1.4,0
			c0-3.1-0.1-6.2,0-9.3C95.3,456.4,95.8,453.6,95.1,451.1z"/>
		<path d="M94.6,451.7c0.1-0.3,0.1-0.3,0-0.7c0-0.1-0.1-0.2-0.2-0.2c-2.4-0.3-4.3,4.1-5,5.9c-1.6,4.4-1.9,9.2-3,13.7
			c-0.2,0.6,0.5,1.7,0.9,0.8c1.3-2.9,1.4-6.1,2-9.2c0.4-2.3,0.9-4.5,2-6.5c0.5-1,1.2-1.9,2-2.7c0.4-0.4,0.9-0.8,1.3-1.2
			C94.4,451.7,94.5,451.8,94.6,451.7z"/>
		<path d="M83.6,360.3c0,0.1,0.1,0.3,0.1,0.5c0.2,1.1,0.5,1.9,0.9,2.1c0.1,0,0.1,0,0.2,0c0.1,0,0.2,0,0.3-0.1
			c0.3-0.2,0.5-0.7,0.6-1.2c0.3-1.5-0.4-3.3-1-4.7c-0.1-0.3-0.2-0.6-0.3-0.8c-0.6-1.6-1.4-3.2-2.1-4.7c-1-2.2-2.1-4.5-2.9-6.8
			c-0.8-2.4-1.3-4.6-1.4-6.7c0-0.2,0-0.4,0-0.7c0-0.9,0.1-2.1-0.5-2.5c-0.3-0.2-0.6-0.2-0.7-0.1c-0.6,0.3-0.7,1.6-0.7,1.6
			c-0.1,6,2.3,11.4,4.6,16.6C81.7,355.3,82.8,357.8,83.6,360.3z"/>
		<path d="M88.5,489.2c-0.2-0.1-0.4-0.1-0.7,0.2c-0.2,0.3-0.5,0.5-0.7,0.8l0,0c0-0.6,0-1.2-0.1-1.7c0-0.1,0-0.1,0-0.2
			c0-0.3,0-0.6-0.2-0.9c-0.1-0.2-0.2-0.3-0.3-0.3c-0.1-0.1-0.1-0.1-0.2-0.2c-0.2-0.4-0.2-1-0.3-1.5c0-0.3-0.1-0.6-0.1-0.8
			c0-0.1,0-0.2-0.1-0.3c-0.1-0.5-0.2-1.2-0.6-1.5c-0.4-0.3-0.7-0.2-0.9-0.1c-0.5,0.3-0.8,1.1-0.8,1.6c0,0.5,0.1,1,0.2,1.4
			c0.1,0.3,0.1,0.6,0.2,0.8c0.1,0.8,0.2,1.6,0.3,2.4l0,0.5c0.1,1.1,0.2,2.2,0.1,3.2c-0.2-0.6-0.3-1.3-0.4-1.3l-0.2,0l-0.1-0.2
			c-0.2,0.1-0.2,0.3,0.2,1.7l0,0.2c0.2,0.6,0.3,0.9,0.4,1.1c-0.1,0.3-0.3,0.7-0.5,1c-0.1,0.2-0.2,0.3-0.3,0.5
			c-0.3,0.5-0.5,1-0.8,1.6c0-0.3,0.1-0.6,0.1-0.9l0-0.2c0,0,0-0.1,0.1-0.3c0.3-1.8,0.3-2,0.1-2.2l-0.1-0.1l-0.1,0.1
			c-0.1,0.1-0.2,0.2-0.3,0.5c-0.1,0-0.3,0-0.4,0.2c-0.2,0.2-0.1,0.6-0.1,0.9l0,0c0,0.1-0.2,0.8-0.3,1c0,0.1-0.1,0.2-0.1,0.2l0.1,0
			c-0.2,0.4-0.4,0.8-0.6,1.1l0,0.1c-1,1.6-2.2,3-3.3,4.2c-0.2,0.2-0.3,0.3-0.5,0.5c-0.4,0.4-0.8,0.9-1.2,1.3c-0.4,0.4-0.9,0.7-1.4,1
			c-0.3,0.2-0.6,0.4-0.8,0.6c-0.4,0.3-0.7,0.6-1,0.9c-0.3,0.3-0.7,0.6-1,0.8c-0.5,0.4-1.2,0.7-1.9,0.9c-0.1,0-0.2,0.1-0.3,0.1
			c-0.1-0.3-0.4-0.7-0.9-1.3c-0.1-0.2-0.3-0.3-0.3-0.4c-0.3-0.6-0.5-1.1-0.7-1.9c-0.3-1.6-0.5-3.3-0.5-5c0-1.6,0-3.2,0.2-4.9
			c0.1-0.8,0.2-1.7,0.3-2.5c0-0.1,0-0.1,0-0.2c0.1-0.3,0.2-0.7,0-1c-0.1-0.2-0.2-0.3-0.3-0.3c1-7.6,0.8-15.3,0.5-22
			c-0.1-1.4-0.1-2.7-0.2-4.1c-0.1-2.3-0.2-4.8-0.3-7.1c-0.1-2-0.1-3.8-0.1-5.5c0-1.2,0.4-2.5,0.7-3.7c0.1-0.5,0.3-1,0.4-1.5
			c3-12.9,6.4-28.2,9.1-44c1.4-8.1,2.5-15.3,3.6-21.9c0.5-3.4,1.1-7.1,1.2-10.7c0-0.3,0-0.5,0-0.8c0.1-1.5,0.1-3.2-0.2-4.6
			c-0.1-0.5-0.3-0.7-0.6-0.7c0,0,0,0,0,0c-0.2,0-0.5,0.1-0.6,0.8c-0.2,0.7-0.3,1.5-0.5,2.3l-0.1,0.4c-0.7,4-1.2,8.1-1.7,12
			c-0.4,3.2-0.8,6.5-1.3,9.7l-0.7,4.1C76,399,75,405.1,74,411c-1.1,6.2-2.6,12.4-4.1,18.4c-1.9,8-3.9,16.3-5.1,24.6l0,0.1
			c-0.1,0.5-0.2,1.3,0.3,1.8c0.3,0.3,0.5,0.3,0.7,0.2c0,0,0.1,0,0.1,0c0.1,2.7,0.2,5.4,0.3,8.1c0.2,5.3,0.5,10.8,0.3,16.3
			c-0.1,4.6-0.5,8.6-1.2,12.3c-0.2,1-0.5,2-0.7,3c-0.3,1-0.5,2.1-0.7,3.1c-0.1,0.3,0.1,2.3,0.8,2.6c0.1,0,0.1,0,0.2,0
			c0.1,2.4,0.8,4.9,1.8,7.1c-0.6,0-1.3,0-1.9,0.1l-0.1,0c-0.3,0-0.5,0.1-0.8,0.3l0,0c-0.1,0.1-0.1,0.2-0.2,0.3l-0.1,0l-0.1,0
			c0,0-0.1,0-0.1,0c-0.1,0-0.4-0.1-0.6,0.2c-0.2,0.2-0.1,0.5-0.1,0.6c0,0.1,0,0.1,0,0.1c-0.1,0.1-0.4,0.2-0.6,0.3
			c-0.1,0.1-0.3,0.1-0.4,0.2c-0.1,0-0.2,0.1-0.3,0.1c-0.3,0.2-0.7,0.3-0.9,0.6c-0.3,0.3-0.5,1-0.3,1.5c0.1,0.3,0.3,0.5,0.6,0.5
			c0.3,0.1,0.8-0.2,1.5-0.5c0.2-0.1,0.3-0.2,0.4-0.2c0.1,0,0.2-0.1,0.2-0.1c0.1,0.1,0.1,0.2,0.3,0.3c0.1,0.1,0.2,0.2,0.3,0.3
			c0,0,0.1,0.1,0.1,0.1c-0.9,0.3-1.6,0.8-2,1.5c-0.3,0.5-0.7,2,0.1,2.6c0.4,0.3,0.7,0.1,0.9-0.1c0.1,0,0.1-0.1,0.2-0.1c0,0,0,0,0,0
			c0.1,0,0.3,0.1,0.5,0c0.2-0.1,0.2-0.3,0.3-0.4c0-0.1,0-0.1,0.1-0.1c0.5-0.8,1.4-0.9,2.3-1l0.1,0c1.7-0.2,3.6-0.3,5.9-0.1
			c1.2,0.1,2.4,0.3,3.5,0.6c0.6,0.2,1.2,0.4,1.8,0.7c0.2,0.1,0.4,0.2,0.6,0.3c0.3,0.2,0.5,0.3,0.8,0.5c-0.2,0.3-0.4,0.5-0.6,0.8
			c-0.5,0.5-1,1.1-1.1,1.8c-0.1,0.3-0.2,2.1,0.4,2.5c0.1,0.1,0.2,0.1,0.3,0.1c0,0,0.1,0,0.1,0c0.6-0.1,1.2-1,1.8-1.9l0.1-0.1
			c0.7-1,1.2-2.3,1.5-3.6c0.6-2.3,0.6-4.8,0.6-7.1l0-0.5c0-0.7,0-1.3,0-2c0-0.1,0-0.2,0-0.4c0-0.5,0.1-1.1-0.2-1.5
			c-0.3-0.5-0.6-0.5-0.8-0.5c-0.6,0.1-0.9,1.2-0.9,1.6c0,0.9,0,1.9,0,2.8c0,0.3,0,0.6,0,0.9c-2.3-0.6-4.8-1.1-7.3-1.5
			c1.1-1.1,2.3-2.4,3.5-3.9c0.6-0.7,1.3-1.3,2-1.9c0.5-0.4,1-0.8,1.5-1.3c0.8-0.8,1.4-1.6,1.9-2.4c-0.1,0.7-0.1,1.3,0.4,1.8
			c0.2,0.2,0.4,0.3,0.7,0.2c0.4-0.1,0.5-0.5,0.7-0.9l0.1-0.2c0.2-0.4,0.3-0.8,0.5-1.1c0,1.5-0.1,3-0.1,4.5c0,0.4,0,0.7,0,1.1
			c0,1.5-0.1,3.2,0.3,4.5c0.1,0.3,0.3,0.8,0.7,1c0.1,0.1,0.2,0.1,0.4,0.1c0.1,0,0.2,0,0.3-0.1c0.6-0.2,1-1.2,1.2-1.9l0-0.1
			c0.5-1.4,0.6-3,0.5-4.4c0-0.9,0-1.9,0-2.8c0-0.8,0-1.6,0-2.4c0-0.9,0-1.9-0.1-2.8c0-0.5-0.1-0.9-0.1-1.4c0-0.5,0-0.6,0.3-1
			c0.1-0.2,0.3-0.3,0.4-0.5c0.6-0.7,1.2-1.3,1.1-2.5C89.3,490.9,89.2,489.5,88.5,489.2z M73.5,506.7
			C73.5,506.7,73.6,506.7,73.5,506.7C73.6,506.7,73.6,506.7,73.5,506.7C73.5,506.7,73.5,506.7,73.5,506.7z M68.6,511.9
			C68.6,511.9,68.6,511.9,68.6,511.9c0.3,0.3,0.6,0.6,0.8,0.9c-1.5-0.4-2.7-0.7-3.5-0.9c0.4,0,0.7,0,1.1,0c0.1,0,0.2,0,0.3,0
			C67.6,512.1,68.2,512.2,68.6,511.9z M70,511.3c1.6,0,3.1,0.2,4.6,0.4c1.8,0.3,3.8,0.5,5.7,0.3c0,1-0.1,2.2-0.4,3.4
			c-0.9-1.7-4.1-2.3-4.8-2.5c-0.8-0.1-1.8-0.2-2.8-0.2c-0.1,0-0.2,0-0.3,0c-0.1,0-0.2,0-0.3,0c-0.5,0-0.7,0-1-0.4
			C70.3,512.1,70.2,511.7,70,511.3z M68.9,508.4C68.9,508.4,68.8,508.4,68.9,508.4C68.9,508.4,68.9,508.4,68.9,508.4
			C68.9,508.4,68.9,508.4,68.9,508.4z"/>
		<path d="M75.5,523.3c-0.8,0.2-1.6,0.4-2.4,0.6c-1.1,0.3-2.3,0.6-3.5,0.8c-1.8,0.3-3.7,0-5.5-0.8c0.1-0.4,0-0.9-0.1-1.1
			c-0.3-0.5-0.8-0.7-1.4-0.4c-0.5,0.3-0.7,0.9-0.8,1.3c-0.1,0.7,0.2,1.1,0.6,1.4c0.1,0.1,0.1,0.2,0.2,0.3l0.1,0.2
			c0.4,0.5,0.8,0.9,1.5,1.2c0.8,0.3,1.7,0.4,2.4,0.4c0.1,0,0.3,0,0.4,0c1.8,0,3.9-0.4,6.1-1.1c0.7-0.2,1.5-0.5,2.2-0.9
			c0.3-0.1,0.5-0.3,0.7-0.6c0.1-0.2,0.2-0.8-0.1-1.1C75.9,523.3,75.7,523.3,75.5,523.3z M63.5,524C63.5,524,63.5,524,63.5,524
			L63.5,524C63.5,524,63.5,524,63.5,524z"/>
		<path d="M82.9,291.2c-0.1-0.7-0.1-1.5-0.1-2.3c0-0.8-0.3-1.4-0.8-1.6c-0.2-0.1-0.5,0-0.7,0.1c-0.6,0.4-0.8,1.6-0.9,2.8
			c0,0.2,0,0.4-0.1,0.5c-0.3,1.7-0.6,3.3-0.9,5l-0.1,0.7c-1.4,7.6-2.8,15.5-3.9,23.4c-0.3,2.3-0.6,4.4-0.9,6.5
			c0,0.2-0.1,0.5-0.1,0.8c-0.1,0.8-0.3,1.6-0.2,2.3c0.1,0.4,0.4,0.9,0.9,1c0,0,0,0,0,0c0.2,0,0.5-0.1,0.6-0.6
			c3-9.9,5.1-21.4,6.5-35.2C82.7,293.8,83,291.6,82.9,291.2z"/>
		<path d="M61.7,325.6c-1.3-7.2-3.6-14.2-6.3-20.9c-1.9-4.8-3.9-12.7-8.4-15.8c-0.3-0.2-0.4,0.4-0.3,0.6
			c6.8,11.3,10.2,24.2,14.3,36.6C61.2,326.7,61.8,326,61.7,325.6z"/>
		<path d="M71.3,406.5c0.2,0.8,0.8,0.3,0.7-0.3c-1-8.4-3-16.7-5.2-24.8c-1.5-5.5-9.8-23.9-2.5-27.4c0.2-0.1,0.2-0.6,0-0.7
			c-6.6-2-3.4,14.6-2.7,17.2C64.9,382.5,68.1,394.4,71.3,406.5z"/>
		<polygon points="122.5,221.6 105.2,196 59.2,196 41.9,221.6"/>
		<polygon points="125.9,226.6 87.3,283.8 164.4,283.8"/>
		<polygon points="38.5,226.6 0,283.8 77.1,283.8"/>
		<polygon points="43.1,225.8 82.2,283.7 121.3,225.8"/>
	</g>
</g>
</svg>
