<?xml version="1.0" encoding="utf-8"?>
<svg version="1.1" xmlns="http://www.w3.org/2000/svg" xmlns:xlink="http://www.w3.org/1999/xlink" x="0px" y="0px"
	 viewBox="0 0 523.1 123.8" style="enable-background:new 0 0 523.1 123.8;" xml:space="preserve">
<g id="Layer_6">
	<g>
		<polygon points="148.4,0 83.5,0 59.1,36.1 172.7,36.1"/>
		<polygon points="123.2,123.8 231.9,123.8 177.5,43.2"/>
		<polygon points="0,123.8 108.7,123.8 54.4,43.2"/>
		<polygon points="60.8,42.1 115.9,123.8 171,42.1"/>
		<polygon points="287.6,41.3 287.6,44.7 287.6,48.1 279.9,48.1 272.1,48.1 272.1,53.1 272.1,58 279.4,58 286.6,58 286.6,61.4
			286.6,64.8 279.4,64.8 272.1,64.8 272.1,72.8 272.1,80.8 268.5,80.8 264.8,80.8 264.8,61.1 264.8,41.3 276.2,41.3 		"/>
		<path d="M334.1,41.3l7.7,19.7l7.7,19.7h-3.9h-3.9l-1.8-4.5l-1.8-4.5h-8h-8l-1.8,4.5l-1.8,4.5h-3.9h-3.9l7.7-19.7l7.7-19.7h3.9
			H334.1z M330.2,50.3l-2.6,7l-2.6,7h5.2h5.2l-2.6-7L330.2,50.3z"/>
		<polygon points="383.2,41.3 383.2,57.6 383.2,73.9 390.6,73.9 397.9,73.9 397.9,77.4 397.9,80.8 386.9,80.8 375.8,80.8
			375.8,61.1 375.8,41.3 379.5,41.3"/>
		<path d="M442.1,41.3c5.6,0,10.7,2.2,14.4,5.8c3.7,3.6,6,8.5,6,13.9c0,5.4-2.3,10.3-6,13.9s-8.8,5.8-14.4,5.8h-7.4h-7.4V61.1V41.3
			h7.4H442.1z M442.1,73.6c3.6,0,6.9-1.5,9.2-3.8c2.3-2.3,3.8-5.4,3.8-8.8c0-3.4-1.4-6.5-3.8-8.8c-2.3-2.3-5.6-3.7-9.2-3.7h-3.8
			h-3.8v12.6v12.6h3.8H442.1z"/>
		<path d="M507.6,41.3l7.7,19.7l7.7,19.7h-3.9h-3.9l-1.8-4.5l-1.8-4.5h-8h-8l-1.8,4.5l-1.8,4.5h-3.9h-3.9l7.7-19.7l7.7-19.7h3.9
			H507.6z M503.8,50.3l-2.6,7l-2.6,7h5.2h5.2l-2.6-7L503.8,50.3z"/>
	</g>
</g>
</svg>
