<?xml version="1.0" encoding="utf-8"?>
<svg version="1.1" xmlns="http://www.w3.org/2000/svg" xmlns:xlink="http://www.w3.org/1999/xlink" x="0px" y="0px"
	 viewBox="0 0 258.3 207.9" style="enable-background:new 0 0 258.3 207.9;" xml:space="preserve">
<g id="Layer_4">
	<g>
		<polygon points="22.8,168.5 22.8,171.9 22.8,175.3 15,175.3 7.3,175.3 7.3,180.2 7.3,185.2 14.6,185.2 21.8,185.2 21.8,188.6
			21.8,192 14.6,192 7.3,192 7.3,200 7.3,207.9 3.7,207.9 0,207.9 0,188.2 0,168.5 11.4,168.5"/>
		<path d="M69.3,168.5l7.7,19.7l7.7,19.7h-3.9H77l-1.8-4.5l-1.8-4.5h-8h-8l-1.8,4.5l-1.8,4.5h-3.9h-3.9l7.7-19.7l7.7-19.7h3.9H69.3z
			 M65.4,177.5l-2.6,7l-2.6,7h5.2h5.2l-2.6-7L65.4,177.5z"/>
		<polygon points="118.4,168.5 118.4,184.8 118.4,201 125.8,201 133.1,201 133.1,204.5 133.1,207.9 122.1,207.9 111,207.9
			111,188.2 111,168.5 114.7,168.5"/>
		<path d="M177.3,168.5c5.6,0,10.7,2.2,14.4,5.8c3.7,3.6,6,8.5,6,13.9c0,5.4-2.3,10.3-6,13.9s-8.8,5.8-14.4,5.8h-7.4h-7.4v-19.7
			v-19.7h7.4H177.3z M177.3,200.8c3.6,0,6.9-1.5,9.2-3.8c2.3-2.3,3.8-5.4,3.8-8.8c0-3.4-1.4-6.5-3.8-8.8c-2.3-2.3-5.6-3.7-9.2-3.7
			h-3.8h-3.8v12.6v12.6h3.8H177.3z"/>
		<path d="M242.8,168.5l7.7,19.7l7.7,19.7h-3.9h-3.9l-1.8-4.5l-1.8-4.5h-8h-8l-1.8,4.5l-1.8,4.5h-3.9h-3.9l7.7-19.7l7.7-19.7h3.9
			H242.8z M239,177.5l-2.6,7l-2.6,7h5.2h5.2l-2.6-7L239,177.5z"/>
		<g>
			<polygon points="157.2,0 92.3,0 67.9,36.1 181.5,36.1"/>
			<polygon points="186.3,43.2 132,123.8 240.7,123.8"/>
			<polygon points="8.8,123.8 117.5,123.8 63.2,43.2"/>
			<polygon points="69.7,42.1 124.7,123.8 179.8,42.1"/>
		</g>
	</g>
</g>
</svg>
